<svg xmlns="http://www.w3.org/2000/svg" width="397.249" height="80.016" viewBox="0 0 397.249 80.016" fill="none">
  <path d="M 33.084 80.016 C 12.42 80.016 0.11 70.124 0 54.407 L 17.366 54.407 C 17.696 63.199 21.433 66.936 32.864 66.936 C 43.525 66.936 47.482 64.518 47.482 57.704 C 47.482 52.208 45.064 50.23 37.48 48.581 L 23.301 45.614 C 8.793 42.646 1.099 35.392 1.099 24.401 C 1.099 10.222 13.299 0 32.314 0 C 51.109 0 63.969 9.782 64.079 24.95 L 46.713 24.95 C 46.163 16.157 42.206 13.08 31.985 13.08 C 21.983 13.08 18.355 15.498 18.246 22.312 C 18.246 27.038 20.224 29.566 28.467 31.215 L 41.987 33.853 C 57.484 36.821 65.508 44.185 65.508 55.286 C 65.508 69.574 53.417 80.016 33.084 80.016 Z M 108.744 80.016 C 83.354 80.016 69.175 63.749 69.175 39.898 C 69.175 16.267 83.684 0 109.183 0 C 134.463 0 148.642 16.267 148.642 40.118 C 148.642 63.749 134.243 80.016 108.744 80.016 Z M 109.073 65.288 C 126.44 65.288 129.737 61.77 129.737 40.118 C 129.737 18.465 126.44 14.728 109.073 14.728 C 91.707 14.728 88.08 18.465 88.08 40.118 C 88.08 61.77 91.707 65.288 109.073 65.288 Z M 173.374 78.477 L 156.667 78.477 L 156.667 1.539 L 193.268 1.539 C 208.216 1.539 219.977 9.892 219.977 25.829 C 219.977 41.877 208.106 50.23 193.378 50.23 L 173.374 50.23 L 173.374 78.477 Z M 173.374 14.948 L 173.374 37.04 L 191.509 37.04 C 199.423 37.04 201.621 35.502 201.621 25.939 C 201.621 16.377 199.423 14.948 191.509 14.948 L 173.374 14.948 Z M 241.994 78.477 L 225.178 78.477 L 225.178 1.539 L 241.994 1.539 L 241.994 31.215 L 273.429 31.215 L 273.429 1.539 L 290.136 1.539 L 290.136 78.477 L 273.429 78.477 L 273.429 46.053 L 241.994 46.053 L 241.994 78.477 Z M 318.77 78.477 L 301.953 78.477 L 301.953 1.539 L 318.77 1.539 L 318.77 78.477 Z M 397.249 78.477 L 379.223 78.477 L 373.838 62.21 L 345.7 62.21 L 340.205 78.477 L 322.729 78.477 L 350.317 1.539 L 369.771 1.539 L 397.249 78.477 Z M 353.284 38.579 L 349.657 49.57 L 369.991 49.57 L 366.474 38.579 C 363.946 30.775 362.517 24.62 361.967 20.004 L 357.791 20.004 C 357.131 24.62 355.812 30.775 353.284 38.579 Z" fill="currentColor" fill-rule="nonzero"></path>
</svg>