<svg xmlns="http://www.w3.org/2000/svg" width="182" height="182" viewBox="0 0 182 182" fill="none">
  <path d="M 67.347 65.528 L 72.843 60.425 L 72.843 60.425 L 67.347 65.528 Z M 116.472 67.347 L 111.369 61.851 L 111.369 61.851 L 116.472 67.347 Z M 114.653 116.472 L 120.149 111.369 L 120.149 111.368 L 114.653 116.472 Z M 65.528 114.653 L 70.631 120.149 L 70.631 120.149 L 65.528 114.653 Z M 91 0 L 83.5 0 L 83.5 56.24 L 91 56.24 L 98.5 56.24 L 98.5 0 L 91 0 Z M 91 56.24 L 83.5 56.24 C 83.5 61.829 76.647 64.521 72.843 60.425 L 67.347 65.528 L 61.851 70.631 C 74.931 84.717 98.5 75.462 98.5 56.24 L 91 56.24 Z M 67.347 65.528 L 72.843 60.425 L 37.346 22.197 L 31.85 27.3 L 26.354 32.403 L 61.851 70.631 L 67.347 65.528 Z M 182 91 L 182 83.5 L 125.76 83.5 L 125.76 91 L 125.76 98.5 L 182 98.5 L 182 91 Z M 125.76 91 L 125.76 83.5 C 120.171 83.5 117.479 76.647 121.575 72.843 L 116.472 67.347 L 111.369 61.851 C 97.283 74.931 106.537 98.5 125.76 98.5 L 125.76 91 Z M 116.472 67.347 L 121.575 72.843 L 159.803 37.346 L 154.7 31.85 L 149.597 26.354 L 111.369 61.851 L 116.472 67.347 Z M 91 182 L 98.5 182 L 98.5 125.76 L 91 125.76 L 83.5 125.76 L 83.5 182 L 91 182 Z M 91 125.76 L 98.5 125.76 C 98.5 120.171 105.353 117.479 109.157 121.576 L 114.653 116.472 L 120.149 111.368 C 107.069 97.283 83.5 106.537 83.5 125.76 L 91 125.76 Z M 114.653 116.472 L 109.157 121.575 L 144.654 159.803 L 150.15 154.7 L 155.646 149.597 L 120.149 111.369 L 114.653 116.472 Z M 0 91 L 0 98.5 L 56.24 98.5 L 56.24 91 L 56.24 83.5 L 0 83.5 L 0 91 Z M 56.24 91 L 56.24 98.5 C 61.829 98.5 64.521 105.353 60.424 109.157 L 65.528 114.653 L 70.631 120.149 C 84.717 107.069 75.463 83.5 56.24 83.5 L 56.24 91 Z M 65.528 114.653 L 60.425 109.157 L 22.197 144.654 L 27.3 150.15 L 32.403 155.646 L 70.631 120.149 L 65.528 114.653 Z" fill="currentColor" fill-rule="nonzero"></path>
</svg>