<svg xmlns="http://www.w3.org/2000/svg" width="397.248" height="80.016" viewBox="0 0 397.248 80.016" fill="none">
  <path d="M 33.084 80.016 C 12.42 80.016 0.11 70.124 0 54.407 L 17.366 54.407 C 17.696 63.2 21.433 66.937 32.864 66.937 C 43.525 66.937 47.482 64.519 47.482 57.704 C 47.482 52.208 45.064 50.23 37.48 48.581 L 23.301 45.614 C 8.793 42.646 1.099 35.392 1.099 24.401 C 1.099 10.222 13.299 0 32.314 0 C 51.109 0 63.969 9.782 64.079 24.95 L 46.713 24.95 C 46.163 16.157 42.206 13.08 31.985 13.08 C 21.982 13.08 18.355 15.498 18.245 22.312 C 18.245 27.038 20.224 29.566 28.467 31.215 L 41.986 33.853 C 57.484 36.821 65.508 44.185 65.508 55.286 C 65.508 69.575 53.417 80.016 33.084 80.016 Z M 108.743 80.016 C 83.354 80.016 69.175 63.749 69.175 39.898 C 69.175 16.267 83.684 0 109.184 0 C 134.464 0 148.642 16.267 148.642 40.118 C 148.642 63.749 134.243 80.016 108.743 80.016 Z M 109.074 65.288 C 126.439 65.288 129.737 61.771 129.737 40.118 C 129.737 18.465 126.439 14.728 109.074 14.728 C 91.708 14.728 88.081 18.465 88.081 40.118 C 88.081 61.771 91.708 65.288 109.074 65.288 Z M 173.374 78.477 L 156.668 78.477 L 156.668 1.539 L 193.268 1.539 C 208.217 1.539 219.977 9.892 219.977 25.829 C 219.977 41.877 208.107 50.23 193.378 50.23 L 173.374 50.23 L 173.374 78.477 Z M 173.374 14.948 L 173.374 37.04 L 191.51 37.04 C 199.424 37.04 201.622 35.502 201.622 25.939 C 201.622 16.377 199.424 14.948 191.51 14.948 L 173.374 14.948 Z M 241.994 78.477 L 225.178 78.477 L 225.178 1.539 L 241.994 1.539 L 241.994 31.215 L 273.429 31.215 L 273.429 1.539 L 290.135 1.539 L 290.135 78.477 L 273.429 78.477 L 273.429 46.053 L 241.994 46.053 L 241.994 78.477 Z M 318.77 78.477 L 301.953 78.477 L 301.953 1.539 L 318.77 1.539 L 318.77 78.477 Z M 397.248 78.477 L 379.223 78.477 L 373.837 62.21 L 345.701 62.21 L 340.204 78.477 L 322.728 78.477 L 350.316 1.539 L 369.77 1.539 L 397.248 78.477 Z M 353.284 38.579 L 349.656 49.57 L 369.99 49.57 L 366.473 38.579 C 363.945 30.775 362.517 24.62 361.967 20.004 L 357.79 20.004 C 357.13 24.62 355.813 30.775 353.284 38.579 Z" fill="currentColor" fill-rule="nonzero"></path>
</svg>