<svg width="400" height="260" viewBox="0 0 400 260" fill="none" xmlns="http://www.w3.org/2000/svg">
<path d="M128.577 156.925V143.105H138.334C138.453 143.491 138.453 144.113 138.334 144.499H130.238V149.214H138.127C138.245 149.6 138.245 150.193 138.127 150.608H130.238V155.531H138.334C138.453 155.887 138.453 156.569 138.334 156.925H128.577Z" fill="#1A1A18"/>
<path d="M153.252 147.851C153.252 149.897 152.036 150.876 149.99 151.232C151.414 152.982 152.541 155.058 153.43 156.897C153.163 156.986 151.947 156.986 151.651 156.897C150.761 155.117 149.605 153.1 148.211 151.38H143.554V156.897C143.021 156.986 142.427 156.986 141.894 156.897V143.076H148.003C151.236 143.076 153.223 144.025 153.252 146.754V147.881V147.851ZM151.592 147.021C151.592 144.826 149.871 144.529 147.884 144.529H143.554V149.986H147.884C149.931 149.986 151.592 149.69 151.592 147.643V147.021Z" fill="#1A1A18"/>
<path d="M168.348 147.911C168.348 150.639 166.331 151.559 163.128 151.559H158.65V156.867C158.145 156.956 157.523 156.956 156.989 156.867V143.047H163.098C166.331 143.047 168.318 143.996 168.348 146.813V147.911ZM166.687 147.021C166.687 144.797 165.056 144.5 163.098 144.5H158.65V150.165H163.098C165.085 150.165 166.687 149.838 166.687 147.673V147.021Z" fill="#1A1A18"/>
<path d="M171.67 152.032C171.581 151.587 171.581 151.231 171.67 150.787H181.576C181.665 151.202 181.665 151.587 181.576 152.032H171.67Z" fill="#1A1A18"/>
<path d="M195.455 153.724C195.455 156.185 193.409 157.075 189.879 157.104C188.337 157.104 186.617 157.015 185.075 156.778C184.956 156.393 184.956 155.77 185.075 155.355C186.765 155.562 188.219 155.651 189.879 155.651C192.074 155.651 193.853 155.384 193.853 153.546V152.626C193.853 151.559 193.201 151.381 191.54 150.936L188.07 150.046C186.083 149.542 185.045 148.919 185.045 147.258V146.042C185.045 143.581 187.358 142.691 190.799 142.691C192.4 142.691 193.764 142.78 195.396 143.047C195.485 143.432 195.485 144.026 195.396 144.411C193.705 144.174 192.489 144.114 190.858 144.114C188.515 144.114 186.676 144.441 186.676 146.161V146.902C186.676 147.97 187.329 148.237 189.049 148.711L192.489 149.601C194.476 150.135 195.514 150.639 195.514 152.389V153.694L195.455 153.724Z" fill="#1A1A18"/>
<path d="M209.305 153.9C209.305 156.213 207.17 157.073 203.967 157.073C200.734 157.073 198.599 156.213 198.599 153.9V149.214C198.599 146.812 200.734 146.011 203.937 146.011C207.17 146.011 209.305 146.812 209.305 149.214V153.9ZM207.674 149.511C207.674 147.672 205.983 147.435 203.937 147.435C201.92 147.435 200.2 147.702 200.2 149.511V153.574C200.2 155.353 201.92 155.62 203.937 155.591C205.983 155.591 207.674 155.324 207.674 153.544V149.481V149.511Z" fill="#1A1A18"/>
<path d="M214.08 147.614H211.855C211.766 147.228 211.766 146.724 211.855 146.368L214.08 146.25V144.915C214.08 142.394 215.918 141.712 217.757 141.712C218.617 141.712 219.329 141.771 220.159 141.89C220.248 142.335 220.248 142.78 220.159 143.224C219.566 143.135 218.943 143.076 218.172 143.076C216.956 143.076 215.681 143.254 215.681 145.182V146.19H219.863C219.952 146.546 219.952 147.199 219.863 147.554H215.681V156.748C215.236 156.837 214.524 156.837 214.05 156.748V147.554L214.08 147.614Z" fill="#1A1A18"/>
<path d="M223.57 147.703H221.316C221.227 147.317 221.227 146.813 221.316 146.427L223.57 146.339V143.462C224.045 143.373 224.727 143.373 225.201 143.462V146.309H229.68C229.769 146.665 229.769 147.317 229.68 147.673H225.201V153.397C225.201 155.443 226.566 155.592 227.693 155.592C228.464 155.592 229.057 155.562 229.68 155.473C229.769 155.888 229.769 156.481 229.68 156.867C228.909 156.986 228.167 157.045 227.277 157.045C225.439 157.045 223.6 156.392 223.6 153.842V147.673L223.57 147.703Z" fill="#1A1A18"/>
<path d="M239.822 148.206L236.768 156.777C236.323 156.866 235.374 156.866 234.929 156.777L231.103 146.249C231.578 146.13 232.289 146.13 232.764 146.249L235.878 155.175L238.962 146.249C239.377 146.13 240.208 146.13 240.653 146.249L243.767 155.205L246.881 146.219C247.385 146.1 248.008 146.1 248.482 146.219L244.686 156.747C244.182 156.836 243.381 156.836 242.877 156.747L239.822 148.176V148.206Z" fill="#1A1A18"/>
<path d="M259.397 155.325H259.308C258.774 156.54 257.083 157.015 254.77 157.045C252.19 157.045 250.232 156.214 250.232 153.99C250.232 151.261 252.308 150.668 255.245 150.668C256.579 150.668 257.736 150.728 259.248 150.906V149.423C259.248 148.118 258.299 147.376 255.245 147.406C254.029 147.406 252.635 147.495 251.063 147.703C250.974 147.287 250.974 146.724 251.063 146.309C252.694 146.071 254.207 145.982 255.689 145.982C259.07 145.982 260.85 146.961 260.85 148.919V156.867C260.494 156.956 259.901 156.956 259.515 156.867L259.367 155.325H259.397ZM259.278 152.092C258.032 151.973 256.727 151.855 255.6 151.855C253.198 151.855 251.834 152.122 251.834 153.812C251.834 155.414 253.465 155.591 255.304 155.591C257.736 155.591 258.537 155.117 259.278 153.901V152.062V152.092Z" fill="#1A1A18"/>
<path d="M264.883 146.19C265.328 146.101 265.773 146.101 266.217 146.19L266.395 147.821H266.514C266.959 146.546 268.679 145.982 271.022 145.982C271.111 146.368 271.111 147.05 271.022 147.436C268.086 147.436 267.255 147.94 266.544 149.423V156.807C266.099 156.896 265.387 156.896 264.942 156.807V146.22L264.883 146.19Z" fill="#1A1A18"/>
<path d="M283.923 152.003C281.817 152.122 277.665 152.122 275.115 152.033V153.515C275.115 155.295 276.775 155.562 279.059 155.532C280.779 155.532 281.936 155.414 283.448 155.206C283.537 155.621 283.537 156.214 283.448 156.629C281.788 156.867 280.364 157.015 278.822 157.015C275.56 157.015 273.513 156.155 273.513 153.812V149.215C273.513 146.813 275.589 145.982 278.763 145.982C281.728 145.982 283.923 146.902 283.923 149.334V152.033V152.003ZM282.321 149.363C282.321 147.584 280.631 147.347 278.763 147.347C276.894 147.347 275.144 147.584 275.144 149.363V150.906L276.687 150.787H282.351V149.334L282.321 149.363Z" fill="#1A1A18"/>
<path d="M161.32 128.632C159.333 128.632 157.85 127.861 157.85 125.37V101.437H161.468V124.036C161.468 125.251 161.854 125.667 163.188 125.667H178.254V128.632H161.32Z" fill="#1A1A18"/>
<path d="M180.805 128.632V105.084C180.805 102.297 182.139 101.437 184.453 101.437H196.938C202.425 101.437 203.878 104.61 203.878 109.741C203.878 114.871 202.395 118.252 196.938 118.252H184.423V128.632H180.805ZM195.633 115.316C199.489 115.316 200.112 113.388 200.112 109.77C200.112 106.152 199.4 104.402 195.633 104.402H186.143C184.601 104.402 184.393 104.936 184.393 106.182V115.316H195.633Z" fill="#1A1A18"/>
<path d="M230.866 128.632H227.248V116.206H211.352V128.632H207.733V101.437H211.352V113.24H227.248V101.437H230.866V128.632Z" fill="#1A1A18"/>
<path d="M243.352 104.135C244.183 102.237 245.013 101.14 247.089 101.14C249.165 101.14 250.084 102.267 250.856 104.135L261.147 128.662H257.351L254.296 121.277H239.882L236.857 128.662H233.061L243.382 104.135H243.352ZM240.92 118.311H253.169L248.038 105.855C247.801 105.321 247.534 104.521 247.059 104.521C246.585 104.521 246.348 105.292 246.14 105.855L240.92 118.311Z" fill="#1A1A18"/>
<path d="M263.283 128.632V105.084C263.283 102.297 264.617 101.437 266.931 101.437H279.416C284.903 101.437 286.356 104.61 286.356 109.741C286.356 114.871 284.873 118.252 279.416 118.252H266.901V128.632H263.283ZM278.111 115.316C281.967 115.316 282.59 113.388 282.59 109.77C282.59 106.152 281.878 104.402 278.111 104.402H268.621C267.079 104.402 266.871 104.936 266.871 106.182V115.316H278.111Z" fill="#1A1A18"/>
<path d="M293.681 128.632C291.694 128.632 290.211 127.861 290.211 125.37V101.437H293.83V124.036C293.83 125.251 294.215 125.667 295.55 125.667H310.616V128.632H293.681Z" fill="#1A1A18"/>
<path d="M322.508 104.135C323.338 102.237 324.169 101.14 326.245 101.14C328.321 101.14 329.24 102.267 330.011 104.135L340.302 128.662H336.506L333.452 121.277H319.038L316.013 128.662H312.217L322.538 104.135H322.508ZM320.106 118.311H332.354L327.223 105.855C326.986 105.321 326.719 104.521 326.245 104.521C325.77 104.521 325.533 105.292 325.325 105.855L320.106 118.311Z" fill="#1A1A18"/>
<path d="M366.965 125.547C366.965 127.831 365.631 128.958 363.703 128.958C361.775 128.958 361.182 128.483 360.114 126.822L347.302 106.299C347.035 105.825 346.798 105.647 346.531 105.647C346.264 105.647 345.998 105.795 345.998 106.418V128.632H342.468V104.342C342.468 101.851 344.307 101.109 345.82 101.109C347.332 101.109 348.667 102.029 349.319 103.096L362.25 123.768C362.457 124.064 362.606 124.42 362.991 124.42C363.377 124.42 363.466 124.005 363.466 123.768V101.436H366.995V125.518L366.965 125.547Z" fill="#1A1A18"/>
<path d="M140.738 105.825C140.975 105.291 141.212 104.49 141.657 104.49C142.102 104.49 142.399 105.261 142.636 105.825L147.767 118.281H138.721L137.594 121.247H148.864L151.919 128.632H155.715L145.424 104.105C144.653 102.236 143.644 101.109 141.657 101.109C139.67 101.109 138.751 102.207 137.92 104.105L127.6 128.632H131.396L134.184 121.81" fill="#1A1A18"/>
<path d="M77.8329 95L38.8926 164.31H59.2376L81.0359 125.369L89.0138 139.457H103.309V128.632L84.5651 95H77.8329Z" fill="url(#paint0_linear_328_140)"/>
<path d="M103.309 98.9741C103.309 96.7794 101.529 95 99.3346 95H92.8989L103.279 113.625V98.9741H103.309Z" fill="url(#paint1_linear_328_140)"/>
<path d="M67.6011 164.309H99.3346C101.529 164.309 103.309 162.53 103.309 160.335V146.633H77.4474L67.6307 164.309H67.6011Z" fill="url(#paint2_linear_328_140)"/>
<path d="M37.9736 95C35.779 95 33.9995 96.7794 33.9995 98.9741V157.399L68.7581 95.0297H37.944L37.9736 95Z" fill="url(#paint3_linear_328_140)"/>
<path d="M38.8925 164.31H37.9731C35.7785 164.31 33.999 162.531 33.999 160.336V157.371" fill="white"/>
<path d="M37.9733 164.31H38.8926L77.8626 95H68.7874L34.0288 157.37V160.335C34.0288 162.53 35.8083 164.31 38.0029 164.31H37.9733Z" fill="white"/>
<path d="M103.308 128.632V113.625L92.9284 95H84.5649L103.308 128.632Z" fill="white"/>
<path d="M89.0139 139.458L81.0361 125.371L59.2378 164.311H67.6012L77.4475 146.635H103.309V139.458H89.0139Z" fill="white"/>
<defs>
<linearGradient id="paint0_linear_328_140" x1="39.9009" y1="167.898" x2="106.897" y2="100.902" gradientUnits="userSpaceOnUse">
<stop stop-color="#00597D"/>
<stop offset="0.2" stop-color="#2F476A"/>
<stop offset="0.4" stop-color="#6B3052"/>
<stop offset="0.6" stop-color="#9B1D3F"/>
<stop offset="0.8" stop-color="#BD1032"/>
<stop offset="0.9" stop-color="#D20829"/>
<stop offset="1" stop-color="#DA0627"/>
</linearGradient>
<linearGradient id="paint1_linear_328_140" x1="37.2318" y1="165.199" x2="104.198" y2="98.2326" gradientUnits="userSpaceOnUse">
<stop stop-color="#00597D"/>
<stop offset="0.2" stop-color="#2F476A"/>
<stop offset="0.4" stop-color="#6B3052"/>
<stop offset="0.6" stop-color="#9B1D3F"/>
<stop offset="0.8" stop-color="#BD1032"/>
<stop offset="0.9" stop-color="#D20829"/>
<stop offset="1" stop-color="#DA0627"/>
</linearGradient>
<linearGradient id="paint2_linear_328_140" x1="58.3479" y1="186.345" x2="125.344" y2="119.348" gradientUnits="userSpaceOnUse">
<stop stop-color="#00597D"/>
<stop offset="0.2" stop-color="#2F476A"/>
<stop offset="0.4" stop-color="#6B3052"/>
<stop offset="0.6" stop-color="#9B1D3F"/>
<stop offset="0.8" stop-color="#BD1032"/>
<stop offset="0.9" stop-color="#D20829"/>
<stop offset="1" stop-color="#DA0627"/>
</linearGradient>
<linearGradient id="paint3_linear_328_140" x1="16.6795" y1="144.676" x2="83.6758" y2="77.68" gradientUnits="userSpaceOnUse">
<stop stop-color="#00597D"/>
<stop offset="0.2" stop-color="#2F476A"/>
<stop offset="0.4" stop-color="#6B3052"/>
<stop offset="0.6" stop-color="#9B1D3F"/>
<stop offset="0.8" stop-color="#BD1032"/>
<stop offset="0.9" stop-color="#D20829"/>
<stop offset="1" stop-color="#DA0627"/>
</linearGradient>
</defs>
</svg>
